<?xml version="1.0" encoding="UTF-8"?>
<svg xmlns="http://www.w3.org/2000/svg" xmlns:xlink="http://www.w3.org/1999/xlink" width="600pt" height="599.999999pt" viewBox="0 0 600 599.999999" version="1.2">
<defs>
<clipPath id="clip1">
  <path d="M 38.25 1 L 561.75 1 L 561.75 600 L 38.25 600 Z M 38.25 1 "/>
</clipPath>
</defs>
<g id="surface1">
<g clip-path="url(#clip1)" clip-rule="nonzero">
<path style=" stroke:none;fill-rule:nonzero;fill:rgb(100%,100%,100%);fill-opacity:1;" d="M 300 599.957031 C 444.3125 599.957031 561.722656 482.550781 561.722656 338.238281 C 561.722656 269.503906 535.28125 204.574219 487.273438 155.402344 C 481.871094 149.875 473.007812 149.769531 467.476562 155.167969 C 461.949219 160.566406 461.84375 169.425781 467.242188 174.960938 C 510.117188 218.867188 533.730469 276.855469 533.730469 338.238281 C 533.730469 467.117188 428.878906 571.964844 300 571.964844 C 171.121094 571.964844 66.269531 467.117188 66.269531 338.238281 C 66.269531 218.203125 157.226562 119.027344 273.835938 105.976562 L 223.984375 155.824219 C 218.523438 161.292969 218.523438 170.152344 223.984375 175.621094 C 229.453125 181.085938 238.316406 181.085938 243.78125 175.621094 L 318.992188 100.40625 C 321.726562 97.675781 323.09375 94.09375 323.09375 90.511719 C 323.09375 86.929688 321.726562 83.347656 318.992188 80.613281 L 243.78125 5.402344 C 238.316406 -0.0625 229.453125 -0.0625 223.984375 5.402344 C 218.523438 10.867188 218.523438 19.730469 223.984375 25.195312 L 276.386719 77.59375 C 143.097656 89.570312 38.277344 201.882812 38.277344 338.238281 C 38.277344 482.550781 155.683594 599.957031 300 599.957031 Z M 300 599.957031 "/>
</g>
</g>
</svg>
