<?xml version="1.0" encoding="UTF-8"?>
<svg xmlns="http://www.w3.org/2000/svg" xmlns:xlink="http://www.w3.org/1999/xlink" width="224.87999pt" height="225pt" viewBox="0 0 224.87999 225" version="1.2">
<defs>
<clipPath id="clip1">
  <path d="M 0 0.0585938 L 224.761719 0.0585938 L 224.761719 224.9375 L 0 224.9375 Z M 0 0.0585938 "/>
</clipPath>
</defs>
<g id="surface1">
<path style=" stroke:none;fill-rule:nonzero;fill:rgb(0%,0%,0%);fill-opacity:1;" d="M 14.992188 22.546875 L 22.488281 22.546875 L 22.488281 15.050781 L 14.992188 15.050781 L 14.992188 22.546875 "/>
<path style=" stroke:none;fill-rule:nonzero;fill:rgb(0%,0%,0%);fill-opacity:1;" d="M 29.984375 22.546875 L 37.480469 22.546875 L 37.480469 15.050781 L 29.984375 15.050781 L 29.984375 22.546875 "/>
<path style=" stroke:none;fill-rule:nonzero;fill:rgb(0%,0%,0%);fill-opacity:1;" d="M 44.976562 22.546875 L 52.472656 22.546875 L 52.472656 15.050781 L 44.976562 15.050781 L 44.976562 22.546875 "/>
<g clip-path="url(#clip1)" clip-rule="nonzero">
<path style=" stroke:none;fill-rule:nonzero;fill:rgb(0%,0%,0%);fill-opacity:1;" d="M 7.496094 217.445312 L 7.496094 37.539062 L 217.382812 37.539062 L 217.382812 217.445312 Z M 7.496094 7.554688 L 59.96875 7.554688 L 59.96875 30.042969 L 7.496094 30.042969 Z M 217.382812 30.042969 L 67.464844 30.042969 L 67.464844 7.554688 L 217.382812 7.554688 Z M 221.132812 0.0585938 L 3.746094 0.0585938 C 1.683594 0.0585938 0 1.742188 0 3.808594 L 0 221.191406 C 0 223.257812 1.683594 224.941406 3.746094 224.941406 L 221.132812 224.941406 C 223.195312 224.941406 224.878906 223.257812 224.878906 221.191406 L 224.878906 3.808594 C 224.878906 1.742188 223.195312 0.0585938 221.132812 0.0585938 "/>
</g>
<path style=" stroke:none;fill-rule:nonzero;fill:rgb(0%,0%,0%);fill-opacity:1;" d="M 112.441406 52.53125 L 112.441406 105.003906 L 88.621094 105.003906 C 96.277344 98.8125 101.195312 89.367188 101.195312 78.769531 C 101.195312 68.167969 96.277344 58.726562 88.621094 52.53125 Z M 22.488281 105.003906 L 22.488281 52.53125 L 46.308594 52.53125 C 38.652344 58.726562 33.730469 68.167969 33.730469 78.769531 C 33.730469 89.367188 38.652344 98.8125 46.308594 105.003906 Z M 93.699219 78.769531 C 93.699219 93.234375 81.929688 105.003906 67.464844 105.003906 C 53 105.003906 41.226562 93.234375 41.226562 78.769531 C 41.226562 64.304688 53 52.53125 67.464844 52.53125 C 81.929688 52.53125 93.699219 64.304688 93.699219 78.769531 Z M 14.992188 45.035156 L 14.992188 112.5 L 119.9375 112.5 L 119.9375 45.035156 L 14.992188 45.035156 "/>
<path style=" stroke:none;fill-rule:nonzero;fill:rgb(0%,0%,0%);fill-opacity:1;" d="M 134.929688 52.53125 L 202.390625 52.53125 L 202.390625 60.027344 L 134.929688 60.027344 Z M 202.390625 90.011719 L 134.929688 90.011719 L 134.929688 82.515625 L 202.390625 82.515625 Z M 202.390625 119.996094 L 134.929688 119.996094 L 134.929688 112.5 L 202.390625 112.5 Z M 202.390625 198.398438 L 141.867188 149.980469 L 202.390625 149.980469 Z M 134.929688 154.035156 L 195.453125 202.453125 L 134.929688 202.453125 Z M 127.433594 67.523438 L 164.910156 67.523438 L 164.910156 75.019531 L 127.433594 75.019531 L 127.433594 97.507812 L 164.910156 97.507812 L 164.910156 105.003906 L 127.433594 105.003906 L 127.433594 127.492188 L 164.910156 127.492188 L 164.910156 142.484375 L 127.433594 142.484375 L 127.433594 209.949219 L 209.886719 209.949219 L 209.886719 142.484375 L 172.40625 142.484375 L 172.40625 127.492188 L 209.886719 127.492188 L 209.886719 105.003906 L 172.40625 105.003906 L 172.40625 97.507812 L 209.886719 97.507812 L 209.886719 75.019531 L 172.40625 75.019531 L 172.40625 67.523438 L 209.886719 67.523438 L 209.886719 45.035156 L 127.433594 45.035156 L 127.433594 67.523438 "/>
<path style=" stroke:none;fill-rule:nonzero;fill:rgb(0%,0%,0%);fill-opacity:1;" d="M 63.714844 73.585938 L 74.082031 78.769531 L 63.714844 83.949219 Z M 57.992188 93.203125 C 58.605469 93.570312 59.28125 93.761719 59.96875 93.761719 C 60.539062 93.761719 61.109375 93.628906 61.652344 93.363281 L 84.140625 82.121094 C 85.398438 81.492188 86.203125 80.1875 86.203125 78.769531 C 86.203125 77.347656 85.398438 76.042969 84.140625 75.414062 L 61.652344 64.171875 C 60.480469 63.601562 59.105469 63.660156 57.992188 64.332031 C 56.894531 65.019531 56.21875 66.222656 56.21875 67.523438 L 56.21875 90.011719 C 56.21875 91.316406 56.894531 92.515625 57.992188 93.203125 "/>
<path style=" stroke:none;fill-rule:nonzero;fill:rgb(0%,0%,0%);fill-opacity:1;" d="M 22.488281 187.460938 L 52.472656 187.460938 L 52.472656 202.453125 L 22.488281 202.453125 Z M 14.992188 209.949219 L 59.96875 209.949219 L 59.96875 179.964844 L 14.992188 179.964844 L 14.992188 209.949219 "/>
<path style=" stroke:none;fill-rule:nonzero;fill:rgb(0%,0%,0%);fill-opacity:1;" d="M 74.960938 187.460938 L 104.945312 187.460938 L 104.945312 202.453125 L 74.960938 202.453125 Z M 67.464844 209.949219 L 112.441406 209.949219 L 112.441406 179.964844 L 67.464844 179.964844 L 67.464844 209.949219 "/>
<path style=" stroke:none;fill-rule:nonzero;fill:rgb(0%,0%,0%);fill-opacity:1;" d="M 82.457031 119.996094 L 14.992188 119.996094 L 14.992188 127.492188 L 82.457031 127.492188 L 82.457031 119.996094 "/>
<path style=" stroke:none;fill-rule:nonzero;fill:rgb(0%,0%,0%);fill-opacity:1;" d="M 89.953125 119.996094 L 89.953125 127.492188 L 97.449219 127.492188 L 97.449219 119.996094 L 89.953125 119.996094 "/>
<path style=" stroke:none;fill-rule:nonzero;fill:rgb(0%,0%,0%);fill-opacity:1;" d="M 44.976562 134.988281 L 14.992188 134.988281 L 14.992188 142.484375 L 44.976562 142.484375 L 44.976562 134.988281 "/>
<path style=" stroke:none;fill-rule:nonzero;fill:rgb(0%,0%,0%);fill-opacity:1;" d="M 59.96875 142.484375 L 59.96875 134.988281 L 52.472656 134.988281 L 52.472656 142.484375 L 59.96875 142.484375 "/>
<path style=" stroke:none;fill-rule:nonzero;fill:rgb(0%,0%,0%);fill-opacity:1;" d="M 67.464844 142.484375 L 119.9375 142.484375 L 119.9375 134.988281 L 67.464844 134.988281 L 67.464844 142.484375 "/>
<path style=" stroke:none;fill-rule:nonzero;fill:rgb(0%,0%,0%);fill-opacity:1;" d="M 14.992188 157.476562 L 119.9375 157.476562 L 119.9375 149.980469 L 14.992188 149.980469 L 14.992188 157.476562 "/>
<path style=" stroke:none;fill-rule:nonzero;fill:rgb(0%,0%,0%);fill-opacity:1;" d="M 44.976562 164.972656 L 14.992188 164.972656 L 14.992188 172.46875 L 44.976562 172.46875 L 44.976562 164.972656 "/>
<path style=" stroke:none;fill-rule:nonzero;fill:rgb(0%,0%,0%);fill-opacity:1;" d="M 52.472656 172.46875 L 59.96875 172.46875 L 59.96875 164.972656 L 52.472656 164.972656 L 52.472656 172.46875 "/>
<path style=" stroke:none;fill-rule:nonzero;fill:rgb(0%,0%,0%);fill-opacity:1;" d="M 67.464844 164.972656 L 67.464844 172.46875 L 82.457031 172.46875 L 82.457031 164.972656 L 67.464844 164.972656 "/>
<path style=" stroke:none;fill-rule:nonzero;fill:rgb(0%,0%,0%);fill-opacity:1;" d="M 89.953125 164.972656 L 89.953125 172.46875 L 97.449219 172.46875 L 97.449219 164.972656 L 89.953125 164.972656 "/>
</g>
</svg>
