<?xml version="1.0" encoding="UTF-8"?>
<svg xmlns="http://www.w3.org/2000/svg" xmlns:xlink="http://www.w3.org/1999/xlink" width="600pt" height="599.999999pt" viewBox="0 0 600 599.999999" version="1.2">
<g id="surface1">
<path style=" stroke:none;fill-rule:nonzero;fill:rgb(100%,100%,100%);fill-opacity:1;" d="M 52.941406 591.175781 C 28.625 591.175781 8.824219 571.394531 8.824219 547.058594 L 8.824219 52.941406 C 8.824219 28.605469 28.625 8.824219 52.941406 8.824219 L 547.058594 8.824219 C 571.375 8.824219 591.175781 28.605469 591.175781 52.941406 L 591.175781 547.058594 C 591.175781 571.394531 571.375 591.175781 547.058594 591.175781 Z M 52.941406 591.175781 "/>
<path style=" stroke:none;fill-rule:nonzero;fill:rgb(27.839661%,53.329468%,78.039551%);fill-opacity:1;" d="M 547.058594 17.648438 C 566.523438 17.648438 582.351562 33.476562 582.351562 52.941406 L 582.351562 547.058594 C 582.351562 566.523438 566.523438 582.351562 547.058594 582.351562 L 52.941406 582.351562 C 33.476562 582.351562 17.648438 566.523438 17.648438 547.058594 L 17.648438 52.941406 C 17.648438 33.476562 33.476562 17.648438 52.941406 17.648438 L 547.058594 17.648438 M 547.058594 0 L 52.941406 0 C 23.699219 0 0 23.699219 0 52.941406 L 0 547.058594 C 0 576.300781 23.699219 600 52.941406 600 L 547.058594 600 C 576.300781 600 600 576.300781 600 547.058594 L 600 52.941406 C 600 23.699219 576.300781 0 547.058594 0 Z M 547.058594 0 "/>
<path style=" stroke:none;fill-rule:nonzero;fill:rgb(59.609985%,79.998779%,99.21875%);fill-opacity:1;" d="M 194.117188 185.292969 C 192.242188 185.292969 190.363281 185.339844 188.488281 185.433594 C 186.613281 185.523438 184.742188 185.664062 182.875 185.847656 C 181.007812 186.03125 179.144531 186.261719 177.285156 186.535156 C 175.429688 186.8125 173.582031 187.132812 171.738281 187.5 C 169.898438 187.863281 168.066406 188.277344 166.246094 188.730469 C 164.425781 189.1875 162.617188 189.6875 160.820312 190.234375 C 159.023438 190.777344 157.242188 191.367188 155.472656 192 C 153.707031 192.632812 151.957031 193.308594 150.222656 194.027344 C 148.488281 194.742188 146.773438 195.503906 145.074219 196.308594 C 143.378906 197.109375 141.703125 197.953125 140.046875 198.839844 C 138.390625 199.722656 136.757812 200.648438 135.148438 201.613281 C 133.535156 202.578125 131.953125 203.582031 130.390625 204.625 C 128.828125 205.667969 127.296875 206.75 125.789062 207.867188 C 124.28125 208.984375 122.800781 210.140625 121.347656 211.332031 C 119.898438 212.523438 118.476562 213.746094 117.085938 215.007812 C 115.695312 216.269531 114.335938 217.5625 113.007812 218.890625 C 111.679688 220.21875 110.386719 221.578125 109.125 222.96875 C 107.867188 224.359375 106.640625 225.78125 105.449219 227.230469 C 104.257812 228.683594 103.101562 230.160156 101.984375 231.667969 C 100.867188 233.175781 99.785156 234.710938 98.742188 236.273438 C 97.699219 237.832031 96.695312 239.417969 95.730469 241.03125 C 94.765625 242.640625 93.839844 244.273438 92.957031 245.929688 C 92.070312 247.582031 91.226562 249.261719 90.425781 250.957031 C 89.621094 252.652344 88.863281 254.371094 88.144531 256.105469 C 87.425781 257.839844 86.75 259.589844 86.117188 261.355469 C 85.484375 263.125 84.894531 264.90625 84.351562 266.703125 C 83.804688 268.5 83.304688 270.308594 82.847656 272.128906 C 82.394531 273.949219 81.980469 275.78125 81.617188 277.621094 C 81.25 279.464844 80.929688 281.3125 80.652344 283.167969 C 80.378906 285.027344 80.148438 286.886719 79.964844 288.757812 C 79.78125 290.625 79.640625 292.496094 79.550781 294.371094 C 79.457031 296.246094 79.410156 298.121094 79.410156 300 C 79.410156 301.878906 79.457031 303.753906 79.550781 305.628906 C 79.640625 307.503906 79.78125 309.375 79.964844 311.242188 C 80.148438 313.113281 80.378906 314.972656 80.652344 316.832031 C 80.929688 318.6875 81.25 320.535156 81.617188 322.378906 C 81.980469 324.21875 82.394531 326.050781 82.847656 327.871094 C 83.304688 329.691406 83.804688 331.5 84.351562 333.296875 C 84.894531 335.09375 85.484375 336.875 86.117188 338.644531 C 86.75 340.410156 87.425781 342.160156 88.144531 343.894531 C 88.863281 345.628906 89.621094 347.347656 90.425781 349.042969 C 91.226562 350.738281 92.070312 352.417969 92.957031 354.070312 C 93.839844 355.726562 94.765625 357.359375 95.730469 358.96875 C 96.695312 360.582031 97.699219 362.167969 98.742188 363.726562 C 99.785156 365.289062 100.867188 366.824219 101.984375 368.332031 C 103.101562 369.839844 104.257812 371.316406 105.449219 372.769531 C 106.640625 374.21875 107.867188 375.640625 109.125 377.03125 C 110.386719 378.421875 111.679688 379.78125 113.007812 381.109375 C 114.335938 382.4375 115.695312 383.730469 117.085938 384.992188 C 118.476562 386.253906 119.898438 387.476562 121.347656 388.667969 C 122.800781 389.859375 124.28125 391.015625 125.789062 392.132812 C 127.296875 393.25 128.828125 394.332031 130.390625 395.375 C 131.953125 396.417969 133.535156 397.421875 135.148438 398.386719 C 136.757812 399.351562 138.390625 400.277344 140.046875 401.160156 C 141.703125 402.046875 143.378906 402.890625 145.074219 403.691406 C 146.773438 404.496094 148.488281 405.257812 150.222656 405.972656 C 151.957031 406.691406 153.707031 407.367188 155.472656 408 C 157.242188 408.632812 159.023438 409.222656 160.820312 409.765625 C 162.617188 410.3125 164.425781 410.8125 166.246094 411.269531 C 168.066406 411.722656 169.898438 412.136719 171.738281 412.5 C 173.582031 412.867188 175.429688 413.1875 177.285156 413.464844 C 179.144531 413.738281 181.007812 413.96875 182.875 414.152344 C 184.742188 414.335938 186.613281 414.476562 188.488281 414.566406 C 190.363281 414.660156 192.242188 414.707031 194.117188 414.707031 C 195.996094 414.707031 197.871094 414.660156 199.746094 414.566406 C 201.621094 414.476562 203.492188 414.335938 205.359375 414.152344 C 207.230469 413.96875 209.089844 413.738281 210.949219 413.464844 C 212.804688 413.1875 214.65625 412.867188 216.496094 412.5 C 218.335938 412.136719 220.167969 411.722656 221.988281 411.269531 C 223.808594 410.8125 225.617188 410.3125 227.414062 409.765625 C 229.210938 409.222656 230.992188 408.632812 232.761719 408 C 234.527344 407.367188 236.277344 406.691406 238.011719 405.972656 C 239.746094 405.257812 241.464844 404.496094 243.160156 403.691406 C 244.859375 402.890625 246.535156 402.046875 248.191406 401.160156 C 249.84375 400.277344 251.476562 399.351562 253.089844 398.386719 C 254.699219 397.421875 256.285156 396.417969 257.84375 395.375 C 259.40625 394.332031 260.941406 393.25 262.449219 392.132812 C 263.957031 391.015625 265.433594 389.859375 266.886719 388.667969 C 268.335938 387.476562 269.757812 386.253906 271.148438 384.992188 C 272.539062 383.730469 273.898438 382.4375 275.226562 381.109375 C 276.554688 379.78125 277.847656 378.421875 279.109375 377.03125 C 280.371094 375.640625 281.59375 374.21875 282.785156 372.769531 C 283.976562 371.316406 285.132812 369.839844 286.25 368.332031 C 287.367188 366.824219 288.449219 365.289062 289.492188 363.726562 C 290.535156 362.167969 291.539062 360.582031 292.503906 358.96875 C 293.46875 357.359375 294.394531 355.726562 295.277344 354.070312 C 296.164062 352.417969 297.007812 350.738281 297.808594 349.042969 C 298.613281 347.347656 299.375 345.628906 300.09375 343.894531 C 300.808594 342.160156 301.484375 340.410156 302.117188 338.644531 C 302.75 336.875 303.339844 335.09375 303.882812 333.296875 C 304.429688 331.5 304.929688 329.691406 305.386719 327.871094 C 305.84375 326.050781 306.253906 324.21875 306.621094 322.378906 C 306.984375 320.535156 307.304688 318.6875 307.582031 316.832031 C 307.859375 314.972656 308.085938 313.113281 308.269531 311.242188 C 308.457031 309.375 308.59375 307.503906 308.683594 305.628906 C 308.777344 303.753906 308.824219 301.878906 308.824219 300 C 308.824219 298.121094 308.777344 296.246094 308.683594 294.371094 C 308.59375 292.496094 308.457031 290.625 308.269531 288.757812 C 308.085938 286.886719 307.859375 285.027344 307.582031 283.167969 C 307.304688 281.3125 306.984375 279.464844 306.621094 277.621094 C 306.253906 275.78125 305.84375 273.949219 305.386719 272.128906 C 304.929688 270.308594 304.429688 268.5 303.882812 266.703125 C 303.339844 264.90625 302.75 263.125 302.117188 261.355469 C 301.484375 259.589844 300.808594 257.839844 300.09375 256.105469 C 299.375 254.371094 298.613281 252.652344 297.808594 250.957031 C 297.007812 249.261719 296.164062 247.582031 295.277344 245.929688 C 294.394531 244.273438 293.46875 242.640625 292.503906 241.03125 C 291.539062 239.417969 290.535156 237.832031 289.492188 236.273438 C 288.449219 234.710938 287.367188 233.175781 286.25 231.667969 C 285.132812 230.160156 283.976562 228.683594 282.785156 227.230469 C 281.59375 225.78125 280.371094 224.359375 279.109375 222.96875 C 277.847656 221.578125 276.554688 220.21875 275.226562 218.890625 C 273.898438 217.5625 272.539062 216.269531 271.148438 215.007812 C 269.757812 213.746094 268.335938 212.523438 266.886719 211.332031 C 265.433594 210.140625 263.957031 208.984375 262.449219 207.867188 C 260.941406 206.75 259.40625 205.667969 257.84375 204.625 C 256.285156 203.582031 254.699219 202.578125 253.089844 201.613281 C 251.476562 200.648438 249.84375 199.722656 248.191406 198.839844 C 246.535156 197.953125 244.859375 197.109375 243.160156 196.308594 C 241.464844 195.503906 239.746094 194.742188 238.011719 194.027344 C 236.277344 193.308594 234.527344 192.632812 232.761719 192 C 230.992188 191.367188 229.210938 190.777344 227.414062 190.234375 C 225.617188 189.6875 223.808594 189.1875 221.988281 188.730469 C 220.167969 188.277344 218.335938 187.863281 216.496094 187.5 C 214.65625 187.132812 212.804688 186.8125 210.949219 186.535156 C 209.089844 186.261719 207.230469 186.03125 205.359375 185.847656 C 203.492188 185.664062 201.621094 185.523438 199.746094 185.433594 C 197.871094 185.339844 195.996094 185.292969 194.117188 185.292969 Z M 194.117188 185.292969 "/>
<path style=" stroke:none;fill-rule:nonzero;fill:rgb(27.839661%,53.329468%,78.039551%);fill-opacity:1;" d="M 194.117188 194.117188 C 252.492188 194.117188 300 241.625 300 300 C 300 358.375 252.492188 405.882812 194.117188 405.882812 C 135.742188 405.882812 88.234375 358.375 88.234375 300 C 88.234375 241.625 135.742188 194.117188 194.117188 194.117188 M 194.117188 176.46875 C 125.894531 176.46875 70.589844 231.777344 70.589844 300 C 70.589844 368.222656 125.894531 423.53125 194.117188 423.53125 C 262.339844 423.53125 317.648438 368.222656 317.648438 300 C 317.648438 231.777344 262.339844 176.46875 194.117188 176.46875 Z M 194.117188 176.46875 "/>
<path style=" stroke:none;fill-rule:nonzero;fill:rgb(87.449646%,94.119263%,99.609375%);fill-opacity:1;" d="M 202.941406 291.175781 L 202.941406 185.628906 C 259.183594 189.933594 304.183594 234.953125 308.488281 291.175781 Z M 202.941406 291.175781 "/>
<path style=" stroke:none;fill-rule:nonzero;fill:rgb(27.839661%,53.329468%,78.039551%);fill-opacity:1;" d="M 211.765625 195.582031 C 256.042969 203.046875 291.070312 238.078125 298.535156 282.351562 L 211.765625 282.351562 L 211.765625 195.582031 M 194.117188 176.46875 L 194.117188 300 L 317.648438 300 C 317.648438 231.777344 262.339844 176.46875 194.117188 176.46875 Z M 520.589844 211.765625 L 361.765625 211.765625 C 356.910156 211.765625 352.941406 207.792969 352.941406 202.941406 C 352.941406 198.089844 356.910156 194.117188 361.765625 194.117188 L 520.589844 194.117188 C 525.441406 194.117188 529.410156 198.089844 529.410156 202.941406 C 529.410156 207.792969 525.441406 211.765625 520.589844 211.765625 Z M 520.589844 282.351562 L 361.765625 282.351562 C 356.910156 282.351562 352.941406 278.382812 352.941406 273.53125 C 352.941406 268.675781 356.910156 264.707031 361.765625 264.707031 L 520.589844 264.707031 C 525.441406 264.707031 529.410156 268.675781 529.410156 273.53125 C 529.410156 278.382812 525.441406 282.351562 520.589844 282.351562 Z M 520.589844 352.941406 L 361.765625 352.941406 C 356.910156 352.941406 352.941406 348.96875 352.941406 344.117188 C 352.941406 339.265625 356.910156 335.292969 361.765625 335.292969 L 520.589844 335.292969 C 525.441406 335.292969 529.410156 339.265625 529.410156 344.117188 C 529.410156 348.96875 525.441406 352.941406 520.589844 352.941406 Z M 450 423.53125 L 361.765625 423.53125 C 356.910156 423.53125 352.941406 419.558594 352.941406 414.707031 C 352.941406 409.851562 356.910156 405.882812 361.765625 405.882812 L 450 405.882812 C 454.851562 405.882812 458.824219 409.851562 458.824219 414.707031 C 458.824219 419.558594 454.851562 423.53125 450 423.53125 Z M 450 423.53125 "/>
</g>
</svg>
