<?xml version="1.0" encoding="UTF-8"?>
<svg xmlns="http://www.w3.org/2000/svg" xmlns:xlink="http://www.w3.org/1999/xlink" width="600pt" height="599.999999pt" viewBox="0 0 600 599.999999" version="1.2">
<g id="surface1">
<path style=" stroke:none;fill-rule:nonzero;fill:rgb(26.669312%,25.099182%,32.939148%);fill-opacity:1;" d="M 436.363281 0 C 406.28125 0 381.816406 24.464844 381.816406 54.546875 L 381.816406 190.910156 L 245.453125 190.910156 C 215.492188 190.910156 190.910156 215.492188 190.910156 245.453125 L 190.910156 381.816406 L 54.546875 381.816406 C 24.582031 381.816406 0 406.398438 0 436.363281 L 0 545.453125 C 0 575.417969 24.582031 600 54.546875 600 L 545.453125 600 C 575.535156 600 600 575.535156 600 545.453125 L 600 54.546875 C 600 24.464844 575.535156 0 545.453125 0 Z M 245.453125 218.183594 L 381.816406 218.183594 L 381.816406 572.726562 L 54.546875 572.726562 C 39.316406 572.726562 27.273438 560.683594 27.273438 545.453125 L 27.273438 436.363281 C 27.273438 421.136719 39.316406 409.089844 54.546875 409.089844 L 204.546875 409.089844 C 205.441406 409.089844 206.328125 409.003906 207.207031 408.828125 C 208.085938 408.652344 208.9375 408.394531 209.765625 408.050781 C 210.589844 407.710938 211.378906 407.289062 212.121094 406.792969 C 212.867188 406.292969 213.554688 405.730469 214.1875 405.097656 C 214.820312 404.460938 215.386719 403.773438 215.882812 403.03125 C 216.382812 402.285156 216.800781 401.5 217.144531 400.671875 C 217.488281 399.84375 217.746094 398.992188 217.917969 398.113281 C 218.09375 397.238281 218.183594 396.351562 218.183594 395.453125 L 218.183594 245.453125 C 218.183594 230.226562 230.226562 218.183594 245.453125 218.183594 Z M 245.453125 218.183594 "/>
</g>
</svg>
