<?xml version="1.0" encoding="UTF-8"?>
<svg xmlns="http://www.w3.org/2000/svg" xmlns:xlink="http://www.w3.org/1999/xlink" width="600pt" height="599.999999pt" viewBox="0 0 600 599.999999" version="1.2">
<g id="surface1">
<path style=" stroke:none;fill-rule:nonzero;fill:rgb(26.669312%,25.099182%,32.939148%);fill-opacity:1;" d="M 557.144531 0 L 42.855469 0 C 41.453125 0 40.054688 0.0703125 38.65625 0.207031 C 37.257812 0.34375 35.871094 0.550781 34.496094 0.824219 C 33.121094 1.097656 31.757812 1.4375 30.417969 1.84375 C 29.074219 2.253906 27.753906 2.726562 26.457031 3.261719 C 25.160156 3.800781 23.890625 4.398438 22.65625 5.058594 C 21.417969 5.722656 20.214844 6.441406 19.046875 7.222656 C 17.878906 8.003906 16.753906 8.835938 15.667969 9.726562 C 14.582031 10.617188 13.546875 11.558594 12.550781 12.550781 C 11.558594 13.546875 10.617188 14.582031 9.726562 15.667969 C 8.835938 16.753906 8.003906 17.878906 7.222656 19.046875 C 6.441406 20.214844 5.722656 21.417969 5.058594 22.65625 C 4.398438 23.890625 3.800781 25.160156 3.261719 26.457031 C 2.726562 27.753906 2.253906 29.074219 1.84375 30.417969 C 1.4375 31.757812 1.097656 33.121094 0.824219 34.496094 C 0.550781 35.871094 0.34375 37.257812 0.207031 38.65625 C 0.0703125 40.054688 0 41.453125 0 42.855469 C 0 44.261719 0.0703125 45.660156 0.207031 47.058594 C 0.34375 48.453125 0.550781 49.839844 0.824219 51.21875 C 1.097656 52.59375 1.4375 53.953125 1.84375 55.296875 C 2.253906 56.640625 2.726562 57.960938 3.261719 59.257812 C 3.800781 60.554688 4.398438 61.820312 5.058594 63.058594 C 5.722656 64.296875 6.441406 65.5 7.222656 66.667969 C 8.003906 67.835938 8.835938 68.960938 9.726562 70.046875 C 10.617188 71.128906 11.558594 72.167969 12.550781 73.160156 C 13.546875 74.152344 14.582031 75.097656 15.667969 75.984375 C 16.753906 76.875 17.878906 77.710938 19.046875 78.492188 C 20.214844 79.269531 21.417969 79.992188 22.65625 80.652344 C 23.890625 81.316406 25.160156 81.914062 26.457031 82.453125 C 27.753906 82.988281 29.074219 83.460938 30.417969 83.867188 C 31.757812 84.277344 33.121094 84.617188 34.496094 84.890625 C 35.871094 85.164062 37.257812 85.371094 38.65625 85.507812 C 40.054688 85.644531 41.453125 85.714844 42.855469 85.714844 L 557.144531 85.714844 C 558.546875 85.714844 559.945312 85.644531 561.34375 85.507812 C 562.742188 85.371094 564.128906 85.164062 565.503906 84.890625 C 566.878906 84.617188 568.242188 84.277344 569.582031 83.867188 C 570.925781 83.460938 572.246094 82.988281 573.542969 82.453125 C 574.839844 81.914062 576.109375 81.316406 577.34375 80.652344 C 578.582031 79.992188 579.785156 79.269531 580.953125 78.492188 C 582.121094 77.710938 583.246094 76.875 584.332031 75.984375 C 585.417969 75.097656 586.453125 74.152344 587.449219 73.160156 C 588.441406 72.167969 589.382812 71.128906 590.273438 70.046875 C 591.164062 68.960938 591.996094 67.835938 592.777344 66.667969 C 593.558594 65.5 594.277344 64.296875 594.9375 63.058594 C 595.601562 61.820312 596.199219 60.554688 596.738281 59.257812 C 597.273438 57.960938 597.746094 56.640625 598.15625 55.296875 C 598.5625 53.953125 598.902344 52.59375 599.175781 51.21875 C 599.449219 49.839844 599.65625 48.453125 599.792969 47.058594 C 599.929688 45.660156 600 44.261719 600 42.855469 C 600 41.453125 599.929688 40.054688 599.792969 38.65625 C 599.65625 37.257812 599.449219 35.871094 599.175781 34.496094 C 598.902344 33.121094 598.5625 31.757812 598.15625 30.417969 C 597.746094 29.074219 597.273438 27.753906 596.738281 26.457031 C 596.199219 25.160156 595.601562 23.890625 594.9375 22.65625 C 594.277344 21.417969 593.558594 20.214844 592.777344 19.046875 C 591.996094 17.878906 591.164062 16.753906 590.273438 15.667969 C 589.382812 14.582031 588.441406 13.546875 587.449219 12.550781 C 586.453125 11.558594 585.417969 10.617188 584.332031 9.726562 C 583.246094 8.835938 582.121094 8.003906 580.953125 7.222656 C 579.785156 6.441406 578.582031 5.722656 577.34375 5.058594 C 576.109375 4.398438 574.839844 3.800781 573.542969 3.261719 C 572.246094 2.726562 570.925781 2.253906 569.582031 1.84375 C 568.242188 1.4375 566.878906 1.097656 565.503906 0.824219 C 564.128906 0.550781 562.742188 0.34375 561.34375 0.207031 C 559.945312 0.0703125 558.546875 0 557.144531 0 Z M 557.144531 0 "/>
<path style=" stroke:none;fill-rule:nonzero;fill:rgb(26.669312%,25.099182%,32.939148%);fill-opacity:1;" d="M 557.144531 171.429688 L 214.285156 171.429688 C 212.882812 171.429688 211.480469 171.496094 210.085938 171.636719 C 208.6875 171.773438 207.300781 171.976562 205.925781 172.253906 C 204.546875 172.527344 203.1875 172.867188 201.84375 173.273438 C 200.5 173.679688 199.183594 174.152344 197.886719 174.691406 C 196.589844 175.226562 195.320312 175.828125 194.082031 176.488281 C 192.84375 177.152344 191.644531 177.871094 190.476562 178.652344 C 189.308594 179.429688 188.183594 180.265625 187.097656 181.15625 C 186.011719 182.046875 184.972656 182.988281 183.980469 183.980469 C 182.988281 184.972656 182.046875 186.011719 181.15625 187.097656 C 180.265625 188.183594 179.429688 189.308594 178.652344 190.476562 C 177.871094 191.644531 177.152344 192.84375 176.488281 194.082031 C 175.828125 195.320312 175.226562 196.589844 174.691406 197.886719 C 174.152344 199.183594 173.679688 200.5 173.273438 201.84375 C 172.867188 203.1875 172.527344 204.546875 172.253906 205.925781 C 171.976562 207.300781 171.773438 208.6875 171.636719 210.085938 C 171.496094 211.480469 171.429688 212.882812 171.429688 214.285156 C 171.429688 215.6875 171.496094 217.089844 171.636719 218.488281 C 171.773438 219.882812 171.976562 221.269531 172.253906 222.648438 C 172.527344 224.023438 172.867188 225.382812 173.273438 226.726562 C 173.679688 228.070312 174.152344 229.390625 174.691406 230.6875 C 175.226562 231.984375 175.828125 233.25 176.488281 234.488281 C 177.152344 235.726562 177.871094 236.929688 178.652344 238.097656 C 179.429688 239.261719 180.265625 240.390625 181.15625 241.472656 C 182.046875 242.558594 182.988281 243.597656 183.980469 244.589844 C 184.972656 245.582031 186.011719 246.523438 187.097656 247.414062 C 188.183594 248.304688 189.308594 249.140625 190.476562 249.921875 C 191.644531 250.699219 192.84375 251.421875 194.082031 252.082031 C 195.320312 252.742188 196.589844 253.34375 197.886719 253.878906 C 199.183594 254.417969 200.5 254.890625 201.84375 255.296875 C 203.1875 255.703125 204.546875 256.046875 205.925781 256.320312 C 207.300781 256.59375 208.6875 256.800781 210.085938 256.9375 C 211.480469 257.074219 212.882812 257.144531 214.285156 257.144531 L 557.144531 257.144531 C 558.546875 257.144531 559.945312 257.074219 561.34375 256.9375 C 562.742188 256.800781 564.128906 256.59375 565.503906 256.320312 C 566.878906 256.046875 568.242188 255.703125 569.582031 255.296875 C 570.925781 254.890625 572.246094 254.417969 573.542969 253.878906 C 574.839844 253.34375 576.109375 252.742188 577.34375 252.082031 C 578.582031 251.421875 579.785156 250.699219 580.953125 249.921875 C 582.121094 249.140625 583.246094 248.304688 584.332031 247.414062 C 585.417969 246.523438 586.453125 245.582031 587.449219 244.589844 C 588.441406 243.597656 589.382812 242.558594 590.273438 241.472656 C 591.164062 240.390625 591.996094 239.261719 592.777344 238.097656 C 593.558594 236.929688 594.277344 235.726562 594.9375 234.488281 C 595.601562 233.25 596.199219 231.984375 596.738281 230.6875 C 597.273438 229.390625 597.746094 228.070312 598.15625 226.726562 C 598.5625 225.382812 598.902344 224.023438 599.175781 222.648438 C 599.449219 221.269531 599.65625 219.882812 599.792969 218.488281 C 599.929688 217.089844 600 215.6875 600 214.285156 C 600 212.882812 599.929688 211.480469 599.792969 210.085938 C 599.65625 208.6875 599.449219 207.300781 599.175781 205.925781 C 598.902344 204.546875 598.5625 203.1875 598.15625 201.84375 C 597.746094 200.5 597.273438 199.183594 596.738281 197.886719 C 596.199219 196.589844 595.601562 195.320312 594.9375 194.082031 C 594.277344 192.84375 593.558594 191.644531 592.777344 190.476562 C 591.996094 189.308594 591.164062 188.183594 590.273438 187.097656 C 589.382812 186.011719 588.441406 184.972656 587.449219 183.980469 C 586.453125 182.988281 585.417969 182.046875 584.332031 181.15625 C 583.246094 180.265625 582.121094 179.429688 580.953125 178.652344 C 579.785156 177.871094 578.582031 177.152344 577.34375 176.488281 C 576.109375 175.828125 574.839844 175.226562 573.542969 174.691406 C 572.246094 174.152344 570.925781 173.679688 569.582031 173.273438 C 568.242188 172.867188 566.878906 172.527344 565.503906 172.253906 C 564.128906 171.976562 562.742188 171.773438 561.34375 171.636719 C 559.945312 171.496094 558.546875 171.429688 557.144531 171.429688 Z M 557.144531 171.429688 "/>
<path style=" stroke:none;fill-rule:nonzero;fill:rgb(26.669312%,25.099182%,32.939148%);fill-opacity:1;" d="M 557.144531 342.855469 L 42.855469 342.855469 C 41.453125 342.855469 40.054688 342.925781 38.65625 343.0625 C 37.257812 343.199219 35.871094 343.40625 34.496094 343.679688 C 33.121094 343.953125 31.757812 344.296875 30.417969 344.703125 C 29.074219 345.109375 27.753906 345.582031 26.457031 346.121094 C 25.160156 346.65625 23.890625 347.257812 22.65625 347.917969 C 21.417969 348.578125 20.214844 349.300781 19.046875 350.078125 C 17.878906 350.859375 16.753906 351.695312 15.667969 352.585938 C 14.582031 353.476562 13.546875 354.417969 12.550781 355.410156 C 11.558594 356.402344 10.617188 357.441406 9.726562 358.527344 C 8.835938 359.609375 8.003906 360.738281 7.222656 361.902344 C 6.441406 363.070312 5.722656 364.273438 5.058594 365.511719 C 4.398438 366.75 3.800781 368.015625 3.261719 369.3125 C 2.726562 370.609375 2.253906 371.929688 1.84375 373.273438 C 1.4375 374.617188 1.097656 375.976562 0.824219 377.351562 C 0.550781 378.730469 0.34375 380.117188 0.207031 381.511719 C 0.0703125 382.910156 0 384.3125 0 385.714844 C 0 387.117188 0.0703125 388.519531 0.207031 389.914062 C 0.34375 391.3125 0.550781 392.699219 0.824219 394.074219 C 1.097656 395.453125 1.4375 396.8125 1.84375 398.15625 C 2.253906 399.5 2.726562 400.816406 3.261719 402.113281 C 3.800781 403.410156 4.398438 404.679688 5.058594 405.917969 C 5.722656 407.15625 6.441406 408.355469 7.222656 409.523438 C 8.003906 410.691406 8.835938 411.816406 9.726562 412.902344 C 10.617188 413.988281 11.558594 415.027344 12.550781 416.019531 C 13.546875 417.011719 14.582031 417.953125 15.667969 418.84375 C 16.753906 419.734375 17.878906 420.570312 19.046875 421.347656 C 20.214844 422.128906 21.417969 422.847656 22.65625 423.511719 C 23.890625 424.171875 25.160156 424.773438 26.457031 425.308594 C 27.753906 425.847656 29.074219 426.320312 30.417969 426.726562 C 31.757812 427.132812 33.121094 427.472656 34.496094 427.746094 C 35.871094 428.023438 37.257812 428.226562 38.65625 428.363281 C 40.054688 428.503906 41.453125 428.570312 42.855469 428.570312 L 557.144531 428.570312 C 558.546875 428.570312 559.945312 428.503906 561.34375 428.363281 C 562.742188 428.226562 564.128906 428.023438 565.503906 427.746094 C 566.878906 427.472656 568.242188 427.132812 569.582031 426.726562 C 570.925781 426.320312 572.246094 425.847656 573.542969 425.308594 C 574.839844 424.773438 576.109375 424.171875 577.34375 423.511719 C 578.582031 422.847656 579.785156 422.128906 580.953125 421.347656 C 582.121094 420.570312 583.246094 419.734375 584.332031 418.84375 C 585.417969 417.953125 586.453125 417.011719 587.449219 416.019531 C 588.441406 415.027344 589.382812 413.988281 590.273438 412.902344 C 591.164062 411.816406 591.996094 410.691406 592.777344 409.523438 C 593.558594 408.355469 594.277344 407.15625 594.9375 405.917969 C 595.601562 404.679688 596.199219 403.410156 596.738281 402.113281 C 597.273438 400.816406 597.746094 399.5 598.15625 398.15625 C 598.5625 396.8125 598.902344 395.453125 599.175781 394.074219 C 599.449219 392.699219 599.65625 391.3125 599.792969 389.914062 C 599.929688 388.519531 600 387.117188 600 385.714844 C 600 384.3125 599.929688 382.910156 599.792969 381.511719 C 599.65625 380.117188 599.449219 378.730469 599.175781 377.351562 C 598.902344 375.976562 598.5625 374.617188 598.15625 373.273438 C 597.746094 371.929688 597.273438 370.609375 596.738281 369.3125 C 596.199219 368.015625 595.601562 366.75 594.9375 365.511719 C 594.277344 364.273438 593.558594 363.070312 592.777344 361.902344 C 591.996094 360.738281 591.164062 359.609375 590.273438 358.527344 C 589.382812 357.441406 588.441406 356.402344 587.449219 355.410156 C 586.453125 354.417969 585.417969 353.476562 584.332031 352.585938 C 583.246094 351.695312 582.121094 350.859375 580.953125 350.078125 C 579.785156 349.300781 578.582031 348.578125 577.34375 347.917969 C 576.109375 347.257812 574.839844 346.65625 573.542969 346.121094 C 572.246094 345.582031 570.925781 345.109375 569.582031 344.703125 C 568.242188 344.296875 566.878906 343.953125 565.503906 343.679688 C 564.128906 343.40625 562.742188 343.199219 561.34375 343.0625 C 559.945312 342.925781 558.546875 342.855469 557.144531 342.855469 Z M 557.144531 342.855469 "/>
<path style=" stroke:none;fill-rule:nonzero;fill:rgb(26.669312%,25.099182%,32.939148%);fill-opacity:1;" d="M 557.144531 514.285156 L 214.285156 514.285156 C 212.882812 514.285156 211.480469 514.355469 210.085938 514.492188 C 208.6875 514.628906 207.300781 514.835938 205.925781 515.109375 C 204.546875 515.382812 203.1875 515.722656 201.84375 516.132812 C 200.5 516.539062 199.183594 517.011719 197.886719 517.546875 C 196.589844 518.085938 195.320312 518.683594 194.082031 519.347656 C 192.84375 520.007812 191.644531 520.730469 190.476562 521.507812 C 189.308594 522.289062 188.183594 523.125 187.097656 524.015625 C 186.011719 524.902344 184.972656 525.847656 183.980469 526.839844 C 182.988281 527.832031 182.046875 528.871094 181.15625 529.953125 C 180.265625 531.039062 179.429688 532.164062 178.652344 533.332031 C 177.871094 534.5 177.152344 535.703125 176.488281 536.941406 C 175.828125 538.179688 175.226562 539.445312 174.691406 540.742188 C 174.152344 542.039062 173.679688 543.359375 173.273438 544.703125 C 172.867188 546.046875 172.527344 547.40625 172.253906 548.78125 C 171.976562 550.160156 171.773438 551.546875 171.636719 552.941406 C 171.496094 554.339844 171.429688 555.738281 171.429688 557.144531 C 171.429688 558.546875 171.496094 559.945312 171.636719 561.34375 C 171.773438 562.742188 171.976562 564.128906 172.253906 565.503906 C 172.527344 566.878906 172.867188 568.242188 173.273438 569.582031 C 173.679688 570.925781 174.152344 572.246094 174.691406 573.542969 C 175.226562 574.839844 175.828125 576.109375 176.488281 577.34375 C 177.152344 578.582031 177.871094 579.785156 178.652344 580.953125 C 179.429688 582.121094 180.265625 583.246094 181.15625 584.332031 C 182.046875 585.417969 182.988281 586.453125 183.980469 587.449219 C 184.972656 588.441406 186.011719 589.382812 187.097656 590.273438 C 188.183594 591.164062 189.308594 591.996094 190.476562 592.777344 C 191.644531 593.558594 192.84375 594.277344 194.082031 594.9375 C 195.320312 595.601562 196.589844 596.199219 197.886719 596.738281 C 199.183594 597.273438 200.5 597.746094 201.84375 598.15625 C 203.1875 598.5625 204.546875 598.902344 205.925781 599.175781 C 207.300781 599.449219 208.6875 599.65625 210.085938 599.792969 C 211.480469 599.929688 212.882812 600 214.285156 600 L 557.144531 600 C 558.546875 600 559.945312 599.929688 561.34375 599.792969 C 562.742188 599.65625 564.128906 599.449219 565.503906 599.175781 C 566.878906 598.902344 568.242188 598.5625 569.582031 598.15625 C 570.925781 597.746094 572.246094 597.273438 573.542969 596.738281 C 574.839844 596.199219 576.109375 595.601562 577.34375 594.9375 C 578.582031 594.277344 579.785156 593.558594 580.953125 592.777344 C 582.121094 591.996094 583.246094 591.164062 584.332031 590.273438 C 585.417969 589.382812 586.453125 588.441406 587.449219 587.449219 C 588.441406 586.453125 589.382812 585.417969 590.273438 584.332031 C 591.164062 583.246094 591.996094 582.121094 592.777344 580.953125 C 593.558594 579.785156 594.277344 578.582031 594.9375 577.34375 C 595.601562 576.109375 596.199219 574.839844 596.738281 573.542969 C 597.273438 572.246094 597.746094 570.925781 598.15625 569.582031 C 598.5625 568.242188 598.902344 566.878906 599.175781 565.503906 C 599.449219 564.128906 599.65625 562.742188 599.792969 561.34375 C 599.929688 559.945312 600 558.546875 600 557.144531 C 600 555.738281 599.929688 554.339844 599.792969 552.941406 C 599.65625 551.546875 599.449219 550.160156 599.175781 548.78125 C 598.902344 547.40625 598.5625 546.046875 598.15625 544.703125 C 597.746094 543.359375 597.273438 542.039062 596.738281 540.742188 C 596.199219 539.445312 595.601562 538.179688 594.9375 536.941406 C 594.277344 535.703125 593.558594 534.5 592.777344 533.332031 C 591.996094 532.164062 591.164062 531.039062 590.273438 529.953125 C 589.382812 528.871094 588.441406 527.832031 587.449219 526.839844 C 586.453125 525.847656 585.417969 524.902344 584.332031 524.015625 C 583.246094 523.125 582.121094 522.289062 580.953125 521.507812 C 579.785156 520.730469 578.582031 520.007812 577.34375 519.347656 C 576.109375 518.683594 574.839844 518.085938 573.542969 517.546875 C 572.246094 517.011719 570.925781 516.539062 569.582031 516.132812 C 568.242188 515.722656 566.878906 515.382812 565.503906 515.109375 C 564.128906 514.835938 562.742188 514.628906 561.34375 514.492188 C 559.945312 514.355469 558.546875 514.285156 557.144531 514.285156 Z M 557.144531 514.285156 "/>
</g>
</svg>
